#N canvas 152 131 1436 780 12;
#X obj 126 37 metro 167;
#X obj 120 4 bng 15 250 50 0 empty empty empty 17 7 0 10 -262144 -1
-1;
#X obj 14 86 crazybus 500;
#X obj 114 86 crazybus 600;
#X obj 214 86 crazybus 700;
#X obj 118 258 dac~;
#X obj 113 193 *~ 0.33;
#X connect 0 0 2 0;
#X connect 0 0 4 0;
#X connect 0 0 3 0;
#X connect 1 0 0 0;
#X connect 2 0 6 0;
#X connect 3 0 6 0;
#X connect 4 0 6 0;
#X connect 6 0 5 1;
#X connect 6 0 5 0;
